# xmcd
#
# Track frame offsets: 
#        150
#        16080
#        42875
#        69709
#        105106
#
# Disc length: 1592 seconds
#
# Revision: 0
# Processed by: cddbd v1.5.2PL0 Copyright (c) Steve Scherf et al.
# Submitted via: ExactAudioCopy v1.0b3
#
DISCID=30063605
DTITLE=The Biz - Stop-Go
DYEAR=1900
DGENRE=
TTITLE0=Stop-Go (Radio Edit)
TTITLE1=Stop-Go (Original Extended)
TTITLE2=Stop-Go (Original Extended Instrumental)
TTITLE3=Stop-Go (B-Side Mix)
TTITLE4=Data
EXTD=
EXTT0=
EXTT1=
EXTT2=
EXTT3=
EXTT4=
PLAYORDER=
